<svg xmlns="http://www.w3.org/2000/svg" viewBox="0 0 25.55 30.41"><g id="Layer_2" data-name="Layer 2"><g id="Layer_1-2" data-name="Layer 1"><path d="M22.91,27.94l-.12-.34.09,0,.11.3-.08.08Zm-.68.38a4.17,4.17,0,0,1-.83.35.21.21,0,0,1,.14-.25c.17-.05.73-.25.85-.48a.36.36,0,0,1-.16.38Zm-5.37-17.7a.67.67,0,0,0-.13.54c0,.2-.13.19-.25.32s0,.08,0,.26a1.13,1.13,0,0,1-.15.47c-.07-.07,0-.44,0-.56s-.36-.4-.36-.4a2.94,2.94,0,0,0-.2-1.08c.25.39,1.09.14,1.09.14v.31Zm8.41-7.3a3.14,3.14,0,0,1-.47-.4c-.17-.15-.3-.15-1-.21s-.43.07-1,0a1.9,1.9,0,0,0-1,.06.93.93,0,0,1-.37.07.39.39,0,0,0-.55-.11c0-.37-.2-.1-.2-.1s-.28-.05-.28-.05a.32.32,0,0,0-.51,0,3,3,0,0,0-1.19.23,1.31,1.31,0,0,1-.42.11,10,10,0,0,1-1.1,0c-.1-.16-.1-.61-.19-.71A2.32,2.32,0,0,1,17,1.3c0-.16-.37-.19-.37-.19a1.22,1.22,0,0,0-.25-.45c-.13-.1-.24-.47-.69-.62a.77.77,0,0,0-.79.27c-.34-.22-.9.26-1.06.19s-.46.16-.67.53a3.15,3.15,0,0,0-.24,1.17.8.8,0,0,0-.24.7c-.5.3.39,1.79.39,1.79a2.86,2.86,0,0,0-1.61,1.82,2.63,2.63,0,0,0,.62,2.28,14.07,14.07,0,0,1,1.19,2.85,1.36,1.36,0,0,0,.36.63,2.64,2.64,0,0,0,.2.65,3.85,3.85,0,0,0,.24,2.16,2.67,2.67,0,0,1,.14.72.33.33,0,0,0-.32.21s-.39-.05-.39.1.53.21.86.23.33.18.33.18a10.18,10.18,0,0,0-1.63,0s.06.63.12.93.38.18.38.18l0,.13c-.54.25-.2.66-.14,1s.28.3.28.3a.94.94,0,0,0,.11.38s-7.61,7.9-9,8.87-4,.76-4.37.86-.54.42-.48.92.85.23,2,0a27.61,27.61,0,0,0,2.78-.81L14.15,20c0,.17.38.41.38.41.14.72.55.24.55.24s.08.71.14,1.65a9.32,9.32,0,0,0,.41,1.94,6.8,6.8,0,0,0-.64,1c-.17.36-.54.57-.65,1.15a.55.55,0,0,0,.36.69c.06.18-.15.69.16.85s1.55-.6,1.85-1.13a1,1,0,0,0,.13-.88c.75-.51.62-2.56.62-2.56.3-.45.1-1.41.33-2.09a6.33,6.33,0,0,0,.1-2.12c0-.38.41-.82.41-1a1.19,1.19,0,0,1,.12-.43.67.67,0,0,1,.43.21h.24v.64a1.74,1.74,0,0,0,.57,0c.08.68.6,1.47.62,2.08s.12.63.13,1.12a5.42,5.42,0,0,0,.47,1.47c0,.29.2.58.32,1s-.17.73,0,1,0,.56-.32,1a7.41,7.41,0,0,1-.89.91v.36a.79.79,0,0,0-.34.62c0,.41.32.39.32.39l0,.74c.37.47.92.13,1.87-.17a3.69,3.69,0,0,0,1.67-.83c.3-.32,0-1,0-1,.46-.56,0-1.48,0-1.48a2.77,2.77,0,0,0-.11-.85,15.79,15.79,0,0,1,0-2.64A6.82,6.82,0,0,0,23.18,20,3.46,3.46,0,0,1,23,19c.53.39.3-.14.3-.14a.3.3,0,0,0,0-.41,1.86,1.86,0,0,0,.21-.79c0-.4.3-1.94.31-2.45a3.43,3.43,0,0,1,.16-1c.1-.38.15-.69.15-.69.15-.24-.07-1.1-.06-1.33a3,3,0,0,0-.11-.67,1.2,1.2,0,0,0,.53-.35,2.77,2.77,0,0,0-.13-1.56,1.6,1.6,0,0,0,.26-.76c.58-1.08-.47-1-.47-1V7.77a.52.52,0,0,0,.43-.3c.33-.06.24-.44.24-.44a4.69,4.69,0,0,0,.62-2.27c.14-1.15-.08-1.37-.23-1.44Z"/></g></g></svg>